:SAMPLES-PER-SECOND 30
:FULLY-SPECIFIED
:DEGREES
596
root  83.8354 38.5855 -18.6725 -171.55 -76.3776 168.099
RightUpLeg  -13.1065 3.1318 -7.92566
RightLeg  42.6032 -3.72858 -3.95901
RightFoot  -5.14077 -0.477533 8.15259
RightToes  -1.16417e-010 0 -3.6325e-017
Spine  6.38864 0.547921 -2.42094
Spine1  3.9771 0.979567 -4.74424
HEad  -7.90288 -8.86314 -13.4006
LeftShoulder1  -0.670587 5.19101 -33.5867
LeftArm  5.94975 11.6614 -39.9885
LeftForeArm  22.0247 -17.2234 -6.19185
LeftHand  -0.0480754 9.02917 -0.00778812
RightShoulder  -0.658762 -5.44316 27.2752
RightArm  34.0848 5.24751 57.2478
RightForeArm  8.39779 22.0036 4.64437
RightHand  0.048514 5.11635 0.220651
LeftUpLeg  -2.29885 4.4872 -7.15831
LeftLeg  13.3058 2.17105 -0.726423
LeftFoot  -7.86859 -0.221956 8.86856
LeftToes  3.13772e-010 -3.14513e-011 3.96022e-013
597
root  83.4765 38.6405 -18.8287 -169.89 -78.7297 167.175
RightUpLeg  -14.5427 6.48174 -6.88793
RightLeg  37.6555 -3.53637 -3.20394
RightFoot  -5.7298 -0.387857 7.12093
RightToes  -1.16417e-010 0 -3.6325e-017
Spine  6.29185 0.153686 -2.88448
Spine1  3.69764 0.523105 -4.04271
HEad  -8.44897 -9.93999 -12.7226
LeftShoulder1  -0.63068 5.0804 -33.8371
LeftArm  9.02054 10.7438 -40.2938
LeftForeArm  20.3693 -19.4768 -5.20538
LeftHand  -0.0630257 8.16165 -0.681629
RightShoulder  -0.663257 -5.45996 27.2155
RightArm  33.2446 5.01077 56.6945
RightForeArm  7.79858 22.2251 4.64965
RightHand  0.0638113 5.70254 0.338069
LeftUpLeg  -2.15349 4.33644 -6.82205
LeftLeg  12.832 -0.19154 -1.0658
LeftFoot  -7.99943 -0.213718 8.96176
LeftToes  3.13772e-010 -3.14513e-011 3.96022e-013
598
root  83.0216 38.6687 -18.9854 -167.373 -80.2702 164.669
RightUpLeg  -14.7901 9.92222 -6.37561
RightLeg  31.2381 -2.25111 -1.69974
RightFoot  -5.76986 -0.399667 7.36899
RightToes  -1.16417e-010 0 -3.6325e-017
Spine  6.56812 -0.0700342 -2.90553
Spine1  3.59641 0.420666 -4.32897
HEad  -8.95754 -10.7782 -11.9346
LeftShoulder1  -0.663838 5.16515 -33.7927
LeftArm  12.2959 10.176 -40.3395
LeftForeArm  17.9417 -22.3717 -4.19903
LeftHand  -0.0344466 7.60311 0.34827
RightShoulder  -0.618359 -5.33027 27.1339
RightArm  33.2596 4.2371 56.0367
RightForeArm  7.90519 22.9677 4.57295
RightHand  -0.0612798 4.61343 -0.99678
LeftUpLeg  -0.970188 4.46076 -6.73282
LeftLeg  12.0627 -1.89329 -1.32939
LeftFoot  -8.11373 -0.216576 9.40323
LeftToes  3.13772e-010 -3.14513e-011 3.96022e-013
599
root  82.5835 38.6962 -19.1004 -161.827 -82.593 159.423
RightUpLeg  -14.6921 10.7423 -5.92946
RightLeg  23.8426 -0.688357 -0.552248
RightFoot  -5.23285 -0.449858 7.70674
RightToes  -1.16417e-010 0 -3.6325e-017
Spine  6.96244 -0.45327 -2.53937
Spine1  3.09473 0.1521 -4.54818
HEad  -9.0726 -12.7418 -11.8732
LeftShoulder1  -0.658638 5.15804 -33.6576
LeftArm  12.3131 9.50723 -40.5809
LeftForeArm  17.6978 -24.091 -4.18542
LeftHand  -0.0203082 6.99144 1.07869
RightShoulder  -0.616236 -5.32792 27.0617
RightArm  32.2794 3.3097 55.2209
RightForeArm  8.40523 22.3366 4.62026
RightHand  -0.0408676 3.87998 -0.800263
LeftUpLeg  -0.324071 4.08572 -6.87981
LeftLeg  11.6273 -3.85119 -1.27025
LeftFoot  -8.20437 -0.214313 9.60908
LeftToes  3.13772e-010 -3.14513e-011 3.96022e-013
600
root  82.1179 38.7993 -19.1808 -154.798 -84.7001 152.876
RightUpLeg  -14.587 7.26979 -4.70536
RightLeg  17.1623 2.62275 0.565455
RightFoot  -2.36625 -0.312487 4.13373
RightToes  -1.16417e-010 0 -3.6325e-017
Spine  5.6621 -0.587835 -1.52749
Spine1  4.74668 0.212293 -4.55152
HEad  -9.51823 -14.7691 -11.6829
LeftShoulder1  -0.600446 5.0189 -33.4352
LeftArm  11.3771 8.24226 -41.4393
LeftForeArm  17.8082 -25.3297 -4.48326
LeftHand  4.96211e-005 7.69904 1.99339
RightShoulder  -0.648398 -5.43096 26.9394
RightArm  30.8724 3.49655 54.7136
RightForeArm  8.88927 19.8708 5.22133
RightHand  -0.0440097 5.76048 -0.779802
LeftUpLeg  0.684308 3.66804 -6.75487
LeftLeg  10.1406 -5.81717 -1.15466
LeftFoot  -7.95884 -0.232538 9.48136
LeftToes  3.13772e-010 -3.14513e-011 3.96022e-013
601
root  81.6068 38.9109 -19.2611 -145.946 -86.1543 144.178
RightUpLeg  -14.0513 0.140933 -2.4174
RightLeg  13.0462 5.29524 0.793078
RightFoot  2.58326 0.146016 -1.15472
RightToes  -1.16417e-010 0 -3.6325e-017
Spine  4.16258 -0.543065 0.659708
Spine1  6.80099 0.677198 -5.56951
HEad  -9.26057 -16.3422 -11.5124
LeftShoulder1  -0.475517 4.72613 -32.7696
LeftArm  9.60037 7.36118 -42.5436
LeftForeArm  18.9169 -26.0965 -4.59267
LeftHand  -0.00267104 7.76652 1.78399
RightShoulder  -0.591768 -5.266 26.8304
RightArm  27.7803 3.68463 54.4426
RightForeArm  11.6958 16.6058 6.55211
RightHand  -0.108748 4.98535 -1.51736
LeftUpLeg  2.30449 3.58867 -6.34504
LeftLeg  8.27325 -7.42091 -1.08191
LeftFoot  -7.76828 -0.240913 9.20385
LeftToes  3.13772e-010 -3.14513e-011 3.96022e-013
602
root  81.0712 38.9587 -19.3209 -126.247 -87.2018 124.437
RightUpLeg  -13.0966 -5.79688 -1.75248
RightLeg  12.0832 3.2184 0.662626
RightFoot  3.49768 0.516023 -3.80175
RightToes  -1.16417e-010 0 -3.6325e-017
Spine  4.12679 -0.338649 1.66913
Spine1  6.67956 0.851534 -5.25506
HEad  -8.28141 -17.4332 -12.0199
LeftShoulder1  -0.555635 4.92375 -32.9855
LeftArm  9.57237 7.01151 -42.653
LeftForeArm  18.9992 -26.8688 -4.75864
LeftHand  0.00645858 8.23295 1.99691
RightShoulder  -0.648489 -5.4204 27.1232
RightArm  23.6985 3.61649 53.152
RightForeArm  16.1065 12.6391 8.04218
RightHand  -0.133929 4.04759 -1.94239
LeftUpLeg  3.75569 3.0866 -6.56942
LeftLeg  7.15783 -8.56172 -0.680135
LeftFoot  -7.76236 -0.241605 9.21033
LeftToes  3.13772e-010 -3.14513e-011 3.96022e-013
603
root  80.5508 38.9486 -19.3105 -111.376 -87.3079 109.312
RightUpLeg  -12.2145 -6.98865 -2.42861
RightLeg  13.0208 4.53842 1.18697
RightFoot  1.96637 0.368674 -3.03715
RightToes  -1.16417e-010 0 -3.6325e-017
Spine  2.75962 0.095103 3.70677
Spine1  8.69919 1.60242 -5.9364
HEad  -7.23179 -18.6289 -12.5301
LeftShoulder1  -0.559567 4.92938 -33.0731
LeftArm  8.57761 6.18618 -43.176
LeftForeArm  20.1958 -26.9539 -4.71302
LeftHand  -0.0252571 6.67183 0.326416
RightShoulder  -0.576277 -5.22761 26.6799
RightArm  18.4403 4.04111 52.8389
RightForeArm  21.6605 8.48906 8.68593
RightHand  -0.101251 2.09089 -1.62452
LeftUpLeg  5.02612 2.31554 -7.16317
LeftLeg  6.87736 -8.44954 -0.0336055
LeftFoot  -8.29477 -0.194346 9.15742
LeftToes  3.13772e-010 -3.14513e-011 3.96022e-013
604
root  80.1015 38.8986 -19.2262 -95.3457 -87.971 93.0209
RightUpLeg  -11.7836 -8.47905 -2.4299
RightLeg  14.478 5.40049 1.6898
RightFoot  0.872409 0.257736 -2.3579
RightToes  -1.16417e-010 0 -3.6325e-017
Spine  5.50197 -0.16903 7.35369
Spine1  5.20809 1.87007 -8.16572
HEad  -5.64401 -18.8972 -13.7167
LeftShoulder1  -0.679599 5.20549 -33.7838
LeftArm  7.80202 7.41666 -41.8876
LeftForeArm  20.4644 -27.1742 -4.74755
LeftHand  -0.0207393 4.96267 -0.867896
RightShoulder  -0.627176 -5.32596 27.6973
RightArm  16.658 3.33242 50.7436
RightForeArm  24.8581 5.83178 8.61703
RightHand  -0.0594487 0.635173 -0.694505
LeftUpLeg  5.43073 1.26144 -7.18808
LeftLeg  8.26742 -7.91761 0.397658
LeftFoot  -9.38963 -0.105892 9.54868
LeftToes  3.13772e-010 -3.14513e-011 3.96022e-013
605
root  79.7132 38.8525 -19.1746 -72.6429 -88.2555 70.819
RightUpLeg  -12.1479 -8.63392 -2.12119
RightLeg  15.5971 4.75106 1.63474
RightFoot  -0.114988 0.241947 -2.47091
RightToes  -1.16417e-010 0 -3.6325e-017
Spine  6.68296 0.0908033 9.14439
Spine1  2.98355 2.04732 -7.64308
HEad  -4.23885 -19.3132 -14.5191
LeftShoulder1  -0.649411 5.12225 -33.9568
LeftArm  7.93123 8.73019 -42.1776
LeftForeArm  19.5061 -27.0836 -4.77947
LeftHand  -0.0218756 7.49594 1.12198
RightShoulder  -0.683833 -5.48454 27.8494
RightArm  16.0269 2.57054 48.7963
RightForeArm  22.3423 4.23833 8.49445
RightHand  -0.313095 4.48106 -4.13552
LeftUpLeg  4.42137 -1.16017 -7.1441
LeftLeg  10.9414 -5.28939 0.411806
LeftFoot  -9.69114 -0.0957468 10.6588
LeftToes  3.13772e-010 -3.14513e-011 3.96022e-013
606
root  79.3241 38.8454 -19.179 -33.0548 -87.5386 31.574
RightUpLeg  -11.898 -9.23693 -2.10122
RightLeg  16.0879 3.89691 1.58627
RightFoot  -1.06546 0.218502 -2.50043
RightToes  -1.16417e-010 0 -3.6325e-017
Spine  5.51788 0.165388 8.96247
Spine1  4.25037 1.62726 -5.04699
HEad  -3.51949 -19.2351 -14.2608
LeftShoulder1  -0.608805 5.02525 -33.8571
LeftArm  7.88007 9.08136 -43.1321
LeftForeArm  18.6 -26.2703 -4.64785
LeftHand  -0.00272763 8.00947 1.72439
RightShoulder  -0.713602 -5.59994 27.3775
RightArm  15.5144 2.59076 47.7675
RightForeArm  25.8461 4.37084 8.0705
RightHand  0.00649317 2.05669 0.634475
LeftUpLeg  2.86098 -3.2237 -6.62122
LeftLeg  14.2839 -4.82995 -0.598452
LeftFoot  -10.0322 -0.0443833 9.20151
LeftToes  3.13772e-010 -3.14513e-011 3.96022e-013
607
root  78.9974 38.8186 -19.1586 -16.6004 -85.8961 14.9673
RightUpLeg  -11.1455 -9.99221 -2.33338
RightLeg  16.6001 2.94504 1.57221
RightFoot  -2.12933 0.147757 -2.01571
RightToes  -1.16417e-010 0 -3.6325e-017
Spine  5.1428 -0.0438068 8.98028
Spine1  5.17517 1.04987 -3.03109
HEad  -2.57341 -19.5841 -13.378
LeftShoulder1  -0.563407 4.91039 -33.8898
LeftArm  9.92343 8.68242 -43.3322
LeftForeArm  17.9106 -25.2584 -4.46325
LeftHand  -0.0139957 7.90129 1.20488
RightShoulder  -0.770899 -5.76147 27.5144
RightArm  15.8841 2.48746 46.104
RightForeArm  27.2206 5.57664 7.94666
RightHand  0.165444 -0.88296 5.01423
LeftUpLeg  1.28375 -2.50891 -5.77899
LeftLeg  17.9075 -5.36373 -1.67113
LeftFoot  -10.742 0.0277318 5.60389
LeftToes  3.13772e-010 -3.14513e-011 3.96022e-013
